<?xml version="1.0" standalone="no"?>
<!DOCTYPE svg PUBLIC "-//W3C//DTD SVG 20010904//EN"
 "http://www.w3.org/TR/2001/REC-SVG-20010904/DTD/svg10.dtd">
<svg version="1.0" xmlns="http://www.w3.org/2000/svg"
 width="512.000000pt" height="512.000000pt" viewBox="0 0 512.000000 512.000000"
 preserveAspectRatio="xMidYMid meet">
<metadata>
Created by potrace 1.14, written by Peter Selinger 2001-2017
</metadata>
<g transform="translate(0.000000,512.000000) scale(0.100000,-0.100000)"
fill="#000000" stroke="none">
<path d="M490 4460 l-235 -5 -58 -29 c-68 -35 -136 -104 -169 -172 l-23 -49
-3 -1625 -2 -1626 21 -62 c36 -107 148 -207 254 -227 42 -8 4550 -8 4577 0
101 30 199 114 242 205 l21 45 0 1645 0 1645 -29 58 c-53 104 -160 182 -266
194 -61 6 -4035 9 -4330 3z m2885 -419 c99 -67 102 -206 8 -278 -45 -35 -129
-40 -177 -12 -88 52 -117 142 -72 225 25 47 41 63 77 79 51 22 120 16 164 -14z
m584 -2 c64 -46 89 -132 61 -204 -34 -88 -147 -131 -230 -86 -77 41 -112 119
-89 198 30 110 167 159 258 92z m561 13 c111 -55 123 -213 22 -290 -48 -37
-141 -39 -189 -4 -69 49 -98 134 -70 202 39 93 148 135 237 92z m394 -1832 c0
-1020 -3 -1274 -13 -1294 -29 -54 116 -51 -2342 -51 l-2279 0 -27 28 -28 27
-3 1280 -2 1280 2347 0 2348 0 -1 -1270z"/>
<path d="M2609 2928 c-44 -32 -42 -27 -124 -383 -8 -34 -36 -159 -40 -175 -2
-8 -12 -51 -23 -95 -17 -70 -29 -126 -33 -160 -1 -5 -5 -20 -10 -33 -5 -13
-11 -37 -14 -55 -3 -18 -8 -40 -11 -49 -6 -19 -6 -22 -33 -138 -10 -47 -26
-113 -35 -147 -32 -122 -37 -163 -24 -205 29 -97 142 -127 221 -58 31 26 51
79 72 185 2 11 11 52 20 90 9 39 18 77 20 85 2 8 14 62 28 120 14 58 28 116
30 130 3 14 17 72 31 130 60 248 88 368 96 410 14 69 17 81 34 146 30 117 16
174 -55 213 -50 28 -101 25 -150 -11z"/>
<path d="M1939 2761 c-20 -10 -53 -33 -74 -52 -21 -19 -48 -43 -60 -54 -13
-11 -49 -42 -81 -70 -32 -27 -81 -70 -109 -95 -107 -95 -191 -169 -224 -196
-57 -48 -77 -125 -47 -183 8 -15 61 -68 118 -117 57 -49 108 -93 114 -99 9 -8
72 -64 158 -138 12 -10 50 -44 85 -75 35 -31 78 -67 95 -79 88 -64 203 -12
214 95 5 61 -12 96 -74 148 -25 21 -59 50 -74 64 -15 14 -55 49 -89 79 -34 30
-72 63 -84 74 -12 10 -46 40 -75 65 l-54 46 39 34 c108 96 181 160 217 192 23
19 46 40 52 46 6 5 35 30 64 55 63 53 80 84 80 143 0 96 -104 160 -191 117z"/>
<path d="M3074 2765 c-47 -20 -76 -59 -81 -109 -7 -62 9 -96 70 -149 29 -25
61 -53 73 -64 12 -10 50 -43 84 -73 35 -30 82 -71 104 -91 23 -20 58 -52 79
-71 l39 -34 -58 -49 c-32 -28 -62 -54 -68 -60 -6 -5 -45 -39 -86 -74 -41 -36
-79 -70 -85 -76 -5 -5 -36 -32 -68 -59 -69 -59 -87 -89 -87 -150 0 -114 147
-174 230 -95 8 8 67 59 130 114 63 55 120 104 126 110 18 16 146 128 232 203
30 26 60 59 68 74 29 55 10 133 -42 178 -58 50 -259 225 -270 235 -6 5 -42 37
-80 70 -37 33 -90 79 -116 102 -27 24 -59 50 -72 58 -32 21 -86 25 -122 10z"/>
</g>
</svg>
